<?xml version="1.0" encoding="UTF-8"?>
<svg width="184px" height="34px" viewBox="0 0 184 34" version="1.1" xmlns="http://www.w3.org/2000/svg" xmlns:xlink="http://www.w3.org/1999/xlink">
    <!-- Generator: Sketch 43.2 (39069) - http://www.bohemiancoding.com/sketch -->
    <title>Group 15</title>
    <desc>Created with Sketch.</desc>
    <defs></defs>
    <g id="Page-1" stroke="none" stroke-width="1" fill="none" fill-rule="evenodd">
        <g id="login" transform="translate(-461.000000, -235.000000)" fill="#FFFFFF">
            <g id="Group-15" transform="translate(461.000000, 235.000000)">
                <polygon id="Fill-825" points="0.227752443 26.2927368 5.24429967 26.2927368 5.24429967 1.24129825 0.227752443 1.24129825"></polygon>
                <polygon id="Fill-826" points="32.0344599 33.5217333 26.8926489 33.5217333 32.9874241 22.6065404 25.4721928 8.95345263 30.7944078 8.95345263 35.5766098 17.8644351 40.2149681 8.95345263 45.3573785 8.95345263"></polygon>
                <path d="M52.4245967,17.6139684 C52.4245967,20.3518632 54.2400235,22.3918632 56.9017303,22.3918632 C59.6701212,22.3918632 61.396245,20.2623895 61.396245,17.6139684 C61.396245,14.9661439 59.6701212,12.8366702 56.9017303,12.8366702 C54.2400235,12.8366702 52.4245967,14.8760737 52.4245967,17.6139684 M66.2150072,17.6139684 C66.2150072,22.8213368 62.582955,26.7402842 57.7821733,26.7402842 C55.444714,26.7402842 53.7905121,25.8276526 52.6583427,24.4855474 L52.6583427,33.4508105 L47.9834241,33.4508105 L47.9834241,8.95351228 L52.567841,8.95351228 L52.567841,10.8676526 C53.7012091,9.45456491 55.3733915,8.48824912 57.7641928,8.48824912 C62.582955,8.48824912 66.2150072,12.4071965 66.2150072,17.6139684" id="Fill-827"></path>
                <path d="M73.8208599,15.9858456 L81.5338762,15.9858456 C81.1023453,13.7668982 79.7538111,12.5148632 77.7405993,12.5148632 C75.5290033,12.5148632 74.2344104,13.8384772 73.8208599,15.9858456 M86.2447557,17.5963719 C86.2447557,18.133214 86.2087948,18.7774246 86.1548534,19.1711088 L73.8028795,19.1711088 C74.3063322,21.6763719 76.0684169,22.7673544 78.2794137,22.7673544 C79.7903713,22.7673544 81.4259935,22.1595298 82.6846254,21.1037404 L85.4356352,24.1094596 C83.457785,25.9168281 80.9411205,26.739986 78.0103062,26.739986 C72.6701107,26.739986 68.9661368,23.1258456 68.9661368,17.6679509 C68.9661368,12.2100561 72.562228,8.48854737 77.7765603,8.48854737 C82.7931075,8.48854737 86.2267752,12.1927579 86.2447557,17.5963719" id="Fill-828"></path>
                <path d="M101.977954,8.8640386 L101.276717,13.4987754 C100.503557,13.1581789 99.3887687,12.9440386 98.4358046,12.9440386 C96.2601694,12.9440386 94.7677915,14.2682491 94.7677915,16.8444947 L94.7677915,26.2929158 L90.0754919,26.2929158 L90.0754919,8.95351228 L94.6239479,8.95351228 L94.6239479,10.8503544 C95.721355,9.22193333 97.3929381,8.48824912 99.5326124,8.48824912 C100.539518,8.48824912 101.330658,8.63140702 101.977954,8.8640386" id="Fill-829"></path>
                <path d="M110.590653,5.83964912 L110.590653,12.5680702 L115.750444,12.5680702 C118.483474,12.5680702 119.90393,11.4585965 119.90393,9.20445614 C119.90393,6.96761404 118.483474,5.83964912 115.750444,5.83964912 L110.590653,5.83964912 Z M110.590653,17.1312281 L110.590653,26.2927368 L105.574106,26.2927368 L105.574106,1.24129825 L115.840946,1.24129825 C121.845819,1.24129825 125.04634,4.35498246 125.04634,9.20445614 C125.04634,14.0175439 121.845819,17.1312281 115.876307,17.1312281 L110.590653,17.1312281 Z" id="Fill-830"></path>
                <polygon id="Fill-831" points="128.930658 26.2927368 133.623557 26.2927368 133.623557 8.95392982 128.930658 8.95392982"></polygon>
                <polygon id="Fill-832" points="138.550202 26.2927368 143.242502 26.2927368 143.242502 0.525508772 138.550202 0.525508772"></polygon>
                <path d="M151.872581,17.6139684 C151.872581,20.4234421 153.850431,22.3918632 156.493558,22.3918632 C159.136086,22.3918632 161.131917,20.4234421 161.131917,17.6139684 C161.131917,14.8050912 159.136086,12.8366702 156.493558,12.8366702 C153.850431,12.8366702 151.872581,14.8050912 151.872581,17.6139684 M165.932698,17.6139684 C165.932698,22.8392316 161.923656,26.7402842 156.493558,26.7402842 C151.081441,26.7402842 147.090379,22.8392316 147.090379,17.6139684 C147.090379,12.3893018 151.081441,8.48824912 156.493558,8.48824912 C161.923656,8.48824912 165.932698,12.3893018 165.932698,17.6139684" id="Fill-833"></path>
                <path d="M182.223351,13.1047333 L175.91281,13.1047333 L175.91281,19.4394702 C175.91281,21.6047333 177.06356,22.3915053 178.519377,22.3915053 C179.634165,22.3915053 180.838856,21.8373649 181.79182,21.2647333 L183.517944,24.9152596 C181.989605,25.9525579 180.227521,26.7399263 177.746218,26.7399263 C173.430908,26.7399263 171.219911,24.3062421 171.219911,19.8152596 L171.219911,13.1047333 L167.857566,13.1047333 L167.857566,8.95375088 L171.219911,8.95375088 L171.219911,3.80006667 L175.91281,3.80006667 L175.91281,8.95375088 L182.223351,8.95375088 L182.223351,13.1047333 Z" id="Fill-834"></path>
                <path d="M134.252633,3.26322456 C134.252633,1.61810175 132.913089,0.284347368 131.259487,0.284347368 C129.605884,0.284347368 128.265741,1.61810175 128.265741,3.26322456 C128.265741,4.90894386 129.605884,6.24269825 131.259487,6.24269825 C132.913089,6.24269825 134.252633,4.90894386 134.252633,3.26322456" id="Fill-835"></path>
                <polygon id="Fill-836" points="17.3619283 26.2927368 22.3784756 26.2927368 22.3784756 1.24129825 17.3619283 1.24129825"></polygon>
                <path d="M14.2968599,13.7670175 C14.2968599,12.1218947 12.9567166,10.7881404 11.303114,10.7881404 C9.65011075,10.7881404 8.30996743,12.1218947 8.30996743,13.7670175 C8.30996743,15.4127368 9.65011075,16.7464912 11.303114,16.7464912 C12.9567166,16.7464912 14.2968599,15.4127368 14.2968599,13.7670175" id="Fill-837"></path>
            </g>
        </g>
    </g>
</svg>