<?xml version="1.0" encoding="UTF-8"?>
<svg width="30px" height="30px" viewBox="0 0 30 30" version="1.1" xmlns="http://www.w3.org/2000/svg" xmlns:xlink="http://www.w3.org/1999/xlink">
    <!-- Generator: Sketch 43.2 (39069) - http://www.bohemiancoding.com/sketch -->
    <title>Group</title>
    <desc>Created with Sketch.</desc>
    <defs></defs>
    <g id="Page-1" stroke="none" stroke-width="1" fill="none" fill-rule="evenodd">
        <g id="app-calibratioan" transform="translate(-1318.000000, -18.000000)" fill-rule="nonzero" fill="#748FFC">
            <g id="Group" transform="translate(1318.000000, 18.000000)">
                <path d="M0,1.9921875 C0,0.900305321 0.873083453,0 1.9921875,0 L6.83134191,0 C7.92322412,0 8.82352941,0.873083453 8.82352941,1.9921875 L8.82352941,6.83134191 C8.82352941,7.92322412 7.95044594,8.82352941 6.83134191,8.82352941 L1.9921875,8.82352941 C0.900305321,8.82352941 0,7.95044594 0,6.83134191 L0,1.9921875 L0,1.9921875 Z M1.76470588,1.9921875 L1.76470588,6.83134191 C1.76470588,6.96693424 1.86655287,7.05882353 1.9921875,7.05882353 L6.83134191,7.05882353 C6.96693424,7.05882353 7.05882353,6.95697653 7.05882353,6.83134191 L7.05882353,1.9921875 C7.05882353,1.85659521 6.95697653,1.76470588 6.83134191,1.76470588 L1.9921875,1.76470588 C1.85659521,1.76470588 1.76470588,1.86655287 1.76470588,1.9921875 L1.76470588,1.9921875 Z M21.1764706,1.9921875 C21.1764706,0.900305321 22.0495541,0 23.1686581,0 L28.0078125,0 C29.0996947,0 30,0.873083453 30,1.9921875 L30,6.83134191 C30,7.92322412 29.1269165,8.82352941 28.0078125,8.82352941 L23.1686581,8.82352941 C22.0767759,8.82352941 21.1764706,7.95044594 21.1764706,6.83134191 L21.1764706,1.9921875 L21.1764706,1.9921875 Z M22.9411765,1.9921875 L22.9411765,6.83134191 C22.9411765,6.96693424 23.0430235,7.05882353 23.1686581,7.05882353 L28.0078125,7.05882353 C28.1434048,7.05882353 28.2352941,6.95697653 28.2352941,6.83134191 L28.2352941,1.9921875 C28.2352941,1.85659521 28.1334471,1.76470588 28.0078125,1.76470588 L23.1686581,1.76470588 C23.0330658,1.76470588 22.9411765,1.86655287 22.9411765,1.9921875 L22.9411765,1.9921875 Z M10.5882353,1.9921875 C10.5882353,0.900305321 11.4613188,0 12.5804228,0 L17.4195772,0 C18.5114594,0 19.4117647,0.873083453 19.4117647,1.9921875 L19.4117647,6.83134191 C19.4117647,7.92322412 18.5386812,8.82352941 17.4195772,8.82352941 L12.5804228,8.82352941 C11.4885406,8.82352941 10.5882353,7.95044594 10.5882353,6.83134191 L10.5882353,1.9921875 L10.5882353,1.9921875 Z M12.3529412,1.9921875 L12.3529412,6.83134191 C12.3529412,6.96693424 12.4547882,7.05882353 12.5804228,7.05882353 L17.4195772,7.05882353 C17.5551695,7.05882353 17.6470588,6.95697653 17.6470588,6.83134191 L17.6470588,1.9921875 C17.6470588,1.85659521 17.5452118,1.76470588 17.4195772,1.76470588 L12.5804228,1.76470588 C12.4448305,1.76470588 12.3529412,1.86655287 12.3529412,1.9921875 L12.3529412,1.9921875 Z M0,12.5804228 C0,11.4885406 0.873083453,10.5882353 1.9921875,10.5882353 L6.83134191,10.5882353 C7.92322412,10.5882353 8.82352941,11.4613188 8.82352941,12.5804228 L8.82352941,17.4195772 C8.82352941,18.5114594 7.95044594,19.4117647 6.83134191,19.4117647 L1.9921875,19.4117647 C0.900305321,19.4117647 0,18.5386812 0,17.4195772 L0,12.5804228 L0,12.5804228 Z M1.76470588,12.5804228 L1.76470588,17.4195772 C1.76470588,17.5551695 1.86655287,17.6470588 1.9921875,17.6470588 L6.83134191,17.6470588 C6.96693424,17.6470588 7.05882353,17.5452118 7.05882353,17.4195772 L7.05882353,12.5804228 C7.05882353,12.4448305 6.95697653,12.3529412 6.83134191,12.3529412 L1.9921875,12.3529412 C1.85659521,12.3529412 1.76470588,12.4547882 1.76470588,12.5804228 L1.76470588,12.5804228 Z M21.1764706,12.5804228 C21.1764706,11.4885406 22.0495541,10.5882353 23.1686581,10.5882353 L28.0078125,10.5882353 C29.0996947,10.5882353 30,11.4613188 30,12.5804228 L30,17.4195772 C30,18.5114594 29.1269165,19.4117647 28.0078125,19.4117647 L23.1686581,19.4117647 C22.0767759,19.4117647 21.1764706,18.5386812 21.1764706,17.4195772 L21.1764706,12.5804228 L21.1764706,12.5804228 Z M22.9411765,12.5804228 L22.9411765,17.4195772 C22.9411765,17.5551695 23.0430235,17.6470588 23.1686581,17.6470588 L28.0078125,17.6470588 C28.1434048,17.6470588 28.2352941,17.5452118 28.2352941,17.4195772 L28.2352941,12.5804228 C28.2352941,12.4448305 28.1334471,12.3529412 28.0078125,12.3529412 L23.1686581,12.3529412 C23.0330658,12.3529412 22.9411765,12.4547882 22.9411765,12.5804228 L22.9411765,12.5804228 Z M10.5882353,12.5804228 C10.5882353,11.4885406 11.4613188,10.5882353 12.5804228,10.5882353 L17.4195772,10.5882353 C18.5114594,10.5882353 19.4117647,11.4613188 19.4117647,12.5804228 L19.4117647,17.4195772 C19.4117647,18.5114594 18.5386812,19.4117647 17.4195772,19.4117647 L12.5804228,19.4117647 C11.4885406,19.4117647 10.5882353,18.5386812 10.5882353,17.4195772 L10.5882353,12.5804228 L10.5882353,12.5804228 Z M12.3529412,12.5804228 L12.3529412,17.4195772 C12.3529412,17.5551695 12.4547882,17.6470588 12.5804228,17.6470588 L17.4195772,17.6470588 C17.5551695,17.6470588 17.6470588,17.5452118 17.6470588,17.4195772 L17.6470588,12.5804228 C17.6470588,12.4448305 17.5452118,12.3529412 17.4195772,12.3529412 L12.5804228,12.3529412 C12.4448305,12.3529412 12.3529412,12.4547882 12.3529412,12.5804228 L12.3529412,12.5804228 Z M0,23.1686581 C0,22.0767759 0.873083453,21.1764706 1.9921875,21.1764706 L6.83134191,21.1764706 C7.92322412,21.1764706 8.82352941,22.0495541 8.82352941,23.1686581 L8.82352941,28.0078125 C8.82352941,29.0996947 7.95044594,30 6.83134191,30 L1.9921875,30 C0.900305321,30 0,29.1269165 0,28.0078125 L0,23.1686581 L0,23.1686581 Z M1.76470588,23.1686581 L1.76470588,28.0078125 C1.76470588,28.1434048 1.86655287,28.2352941 1.9921875,28.2352941 L6.83134191,28.2352941 C6.96693424,28.2352941 7.05882353,28.1334471 7.05882353,28.0078125 L7.05882353,23.1686581 C7.05882353,23.0330658 6.95697653,22.9411765 6.83134191,22.9411765 L1.9921875,22.9411765 C1.85659521,22.9411765 1.76470588,23.0430235 1.76470588,23.1686581 L1.76470588,23.1686581 Z M21.1764706,23.1686581 C21.1764706,22.0767759 22.0495541,21.1764706 23.1686581,21.1764706 L28.0078125,21.1764706 C29.0996947,21.1764706 30,22.0495541 30,23.1686581 L30,28.0078125 C30,29.0996947 29.1269165,30 28.0078125,30 L23.1686581,30 C22.0767759,30 21.1764706,29.1269165 21.1764706,28.0078125 L21.1764706,23.1686581 L21.1764706,23.1686581 Z M22.9411765,23.1686581 L22.9411765,28.0078125 C22.9411765,28.1434048 23.0430235,28.2352941 23.1686581,28.2352941 L28.0078125,28.2352941 C28.1434048,28.2352941 28.2352941,28.1334471 28.2352941,28.0078125 L28.2352941,23.1686581 C28.2352941,23.0330658 28.1334471,22.9411765 28.0078125,22.9411765 L23.1686581,22.9411765 C23.0330658,22.9411765 22.9411765,23.0430235 22.9411765,23.1686581 L22.9411765,23.1686581 Z M10.5882353,23.1686581 C10.5882353,22.0767759 11.4613188,21.1764706 12.5804228,21.1764706 L17.4195772,21.1764706 C18.5114594,21.1764706 19.4117647,22.0495541 19.4117647,23.1686581 L19.4117647,28.0078125 C19.4117647,29.0996947 18.5386812,30 17.4195772,30 L12.5804228,30 C11.4885406,30 10.5882353,29.1269165 10.5882353,28.0078125 L10.5882353,23.1686581 L10.5882353,23.1686581 Z M12.3529412,23.1686581 L12.3529412,28.0078125 C12.3529412,28.1434048 12.4547882,28.2352941 12.5804228,28.2352941 L17.4195772,28.2352941 C17.5551695,28.2352941 17.6470588,28.1334471 17.6470588,28.0078125 L17.6470588,23.1686581 C17.6470588,23.0330658 17.5452118,22.9411765 17.4195772,22.9411765 L12.5804228,22.9411765 C12.4448305,22.9411765 12.3529412,23.0430235 12.3529412,23.1686581 L12.3529412,23.1686581 Z" id="Shape"></path>
            </g>
        </g>
    </g>
</svg>