<?xml version="1.0" encoding="UTF-8"?>
<svg width="26px" height="18px" viewBox="0 0 26 18" version="1.1" xmlns="http://www.w3.org/2000/svg" xmlns:xlink="http://www.w3.org/1999/xlink">
    <!-- Generator: Sketch 43.2 (39069) - http://www.bohemiancoding.com/sketch -->
    <title>Group</title>
    <desc>Created with Sketch.</desc>
    <defs></defs>
    <g id="Page-1" stroke="none" stroke-width="1" fill="none" fill-rule="evenodd">
        <g id="dashboard-initi--copy" transform="translate(-1326.000000, -344.000000)" fill-rule="nonzero" fill="#7792FC">
            <g id="Group" transform="translate(1326.000000, 344.000000)">
                <path d="M24.0171429,0.102857143 L6.42857143,0.102857143 C5.65714286,0.102857143 5.04,0.72 5.04,1.49142857 C5.04,2.26285714 5.65714286,2.88 6.42857143,2.88 L24.0171429,2.88 C24.7885714,2.88 25.4057143,2.26285714 25.4057143,1.49142857 C25.4057143,0.72 24.7885714,0.102857143 24.0171429,0.102857143 Z" id="Shape"></path>
                <path d="M24.0171429,7.35428571 L6.42857143,7.35428571 C5.65714286,7.35428571 5.04,7.97142857 5.04,8.74285714 C5.04,9.51428571 5.65714286,10.1314286 6.42857143,10.1314286 L24.0171429,10.1314286 C24.7885714,10.1314286 25.4057143,9.51428571 25.4057143,8.74285714 C25.4057143,7.97142857 24.7885714,7.35428571 24.0171429,7.35428571 Z" id="Shape"></path>
                <path d="M24.0171429,14.5542857 L6.42857143,14.5542857 C5.65714286,14.5542857 5.04,15.1714286 5.04,15.9428571 C5.04,16.7142857 5.65714286,17.3314286 6.42857143,17.3314286 L24.0171429,17.3314286 C24.7885714,17.3314286 25.4057143,16.7142857 25.4057143,15.9428571 C25.4057143,15.1714286 24.7885714,14.5542857 24.0171429,14.5542857 Z" id="Shape"></path>
                <path d="M2.67428571,0.514285714 C2.16,2.92266211e-14 1.23428571,2.92266211e-14 0.72,0.514285714 C0.462857143,0.771428571 0.308571429,1.13142857 0.308571429,1.49142857 C0.308571429,1.85142857 0.462857143,2.21142857 0.72,2.46857143 C0.977142857,2.72571429 1.33714286,2.88 1.69714286,2.88 C2.05714286,2.88 2.41714286,2.72571429 2.67428571,2.46857143 C2.93142857,2.21142857 3.08571429,1.85142857 3.08571429,1.49142857 C3.08571429,1.13142857 2.93142857,0.771428571 2.67428571,0.514285714 Z" id="Shape"></path>
                <path d="M2.67428571,7.76571429 C2.16,7.25142857 1.23428571,7.25142857 0.668571429,7.76571429 C0.411428571,8.02285714 0.257142857,8.38285714 0.257142857,8.74285714 C0.257142857,9.10285714 0.411428571,9.46285714 0.668571429,9.72 C0.925714286,9.97714286 1.28571429,10.1314286 1.64571429,10.1314286 C2.00571429,10.1314286 2.36571429,9.97714286 2.62285714,9.72 C2.88,9.46285714 3.03428571,9.10285714 3.03428571,8.74285714 C3.08571429,8.38285714 2.93142857,8.02285714 2.67428571,7.76571429 Z" id="Shape"></path>
                <path d="M0.72,14.9657143 C0.462857143,15.2228571 0.308571429,15.5828571 0.308571429,15.9428571 C0.308571429,16.3028571 0.462857143,16.6628571 0.72,16.92 C0.977142857,17.1771429 1.33714286,17.3314286 1.69714286,17.3314286 C2.05714286,17.3314286 2.41714286,17.1771429 2.67428571,16.92 C2.93142857,16.6628571 3.08571429,16.3028571 3.08571429,15.9428571 C3.08571429,15.5828571 2.93142857,15.2228571 2.67428571,14.9657143 C2.16,14.4514286 1.23428571,14.4514286 0.72,14.9657143 Z" id="Shape"></path>
            </g>
        </g>
    </g>
</svg>