<?xml version="1.0" encoding="UTF-8"?>
<svg width="26px" height="30px" viewBox="0 0 26 30" version="1.1" xmlns="http://www.w3.org/2000/svg" xmlns:xlink="http://www.w3.org/1999/xlink">
    <!-- Generator: Sketch 43.2 (39069) - http://www.bohemiancoding.com/sketch -->
    <title>noun_113150_cc</title>
    <desc>Created with Sketch.</desc>
    <defs></defs>
    <g id="Page-1" stroke="none" stroke-width="1" fill="none" fill-rule="evenodd">
        <g id="app-calibratioan" transform="translate(-1371.000000, -17.000000)" fill-rule="nonzero" fill="#748FFC">
            <g id="noun_113150_cc" transform="translate(1371.000000, 17.000000)">
                <path d="M14.4767442,17.4418605 L11.3372093,17.4418605 C5.08604651,17.4418605 0,22.5275581 0,28.7790698 C0,28.825814 0.00139534884,28.8718605 0.00313953488,28.917907 L0.0226744186,30 L25.7916279,30 L25.8111628,28.917907 C25.8125581,28.8718605 25.8139535,28.825814 25.8139535,28.7790698 C25.8139535,22.5275581 20.7282558,17.4418605 14.4767442,17.4418605 Z M2.13383721,27.9069767 C2.5744186,23.2172093 6.53372093,19.5348837 11.3372093,19.5348837 L14.4767442,19.5348837 C19.2802326,19.5348837 23.239186,23.2172093 23.6801163,27.9069767 L2.13383721,27.9069767 Z M12.9069767,16.744186 C17.1387209,16.744186 20.5813953,13.3015116 20.5813953,9.06976744 L20.5813953,7.6744186 C20.5813953,7.03674419 20.5018605,6.4172093 20.3546512,5.82453488 C20.3532558,5.81686047 20.3511628,5.80953488 20.3494186,5.80186047 C19.5111628,2.4722093 16.4926744,0 12.9069767,0 C11.1059302,0 9.44895349,0.625116279 8.13837209,1.6677907 C8.12372093,1.67755814 8.11116279,1.68976744 8.09686047,1.7005814 C6.35162791,3.10848837 5.23255814,5.26255814 5.23255814,7.6744186 L5.23255814,9.06976744 C5.23255814,13.3015116 8.67523256,16.744186 12.9069767,16.744186 Z M12.9069767,2.09302326 C14.9902326,2.09302326 16.8073256,3.24209302 17.7662791,4.9377907 C13.4180233,4.72186047 10.7574419,3.64674419 9.99872093,2.91976744 C10.847093,2.39895349 11.8405814,2.09302326 12.9069767,2.09302326 Z M7.3255814,7.6744186 C7.3255814,6.41651163 7.74906977,5.25802326 8.45406977,4.32383721 C10.1448837,6.07709302 14.3232558,6.95302326 18.4531395,7.06116279 C18.4751163,7.26244186 18.4883721,7.46686047 18.4883721,7.6744186 L18.4883721,9.06976744 C18.4883721,12.1472093 15.9844186,14.6511628 12.9069767,14.6511628 C9.82953488,14.6511628 7.3255814,12.1472093 7.3255814,9.06976744 L7.3255814,7.6744186 Z M16.744186,21.627907 L15.3488372,21.627907 C14.770814,21.627907 14.3023256,22.0963953 14.3023256,22.6744186 C14.3023256,23.2524419 14.770814,23.7209302 15.3488372,23.7209302 L16.744186,23.7209302 C17.3222093,23.7209302 17.7906977,23.2524419 17.7906977,22.6744186 C17.7906977,22.0963953 17.3222093,21.627907 16.744186,21.627907 Z" id="Shape"></path>
            </g>
        </g>
    </g>
</svg>