<?xml version="1.0" encoding="UTF-8"?>
<svg width="18px" height="16px" viewBox="0 0 18 16" version="1.1" xmlns="http://www.w3.org/2000/svg" xmlns:xlink="http://www.w3.org/1999/xlink">
    <!-- Generator: Sketch 43.2 (39069) - http://www.bohemiancoding.com/sketch -->
    <title>Group</title>
    <desc>Created with Sketch.</desc>
    <defs></defs>
    <g id="Page-1" stroke="none" stroke-width="1" fill="none" fill-rule="evenodd">
        <g id="app-calibratioan" transform="translate(-1296.000000, -87.000000)" fill-rule="nonzero" fill="#5677FA">
            <g id="Group" transform="translate(1296.000000, 87.000000)">
                <path d="M17.0322581,13.572282 L16.2580645,13.572282 L16.2580645,2.86738351 C16.2580645,2.33940263 15.8247097,1.91158901 15.2903226,1.91158901 L11.2258065,1.91158901 L11.2258065,0.955794504 C11.2258065,0.42781362 10.7924516,0 10.2580645,0 L2.90322581,0 C2.36883871,0 1.93548387,0.42781362 1.93548387,0.955794504 L1.93548387,13.572282 L0.967741935,13.572282 C0.433354839,13.572282 0,14.0000956 0,14.5280765 C0,15.0560573 0.433354839,15.483871 0.967741935,15.483871 L17.0322581,15.483871 C17.5666452,15.483871 18,15.0560573 18,14.5280765 C18,14.0000956 17.5666452,13.572282 17.0322581,13.572282 Z M3.87096774,1.91158901 L9.29032258,1.91158901 L9.29032258,2.86738351 L9.29032258,13.572282 L3.87096774,13.572282 L3.87096774,1.91158901 Z M11.2258065,13.572282 L11.2258065,3.82317802 L14.3225806,3.82317802 L14.3225806,13.572282 L11.2258065,13.572282 Z" id="Shape"></path>
            </g>
        </g>
    </g>
</svg>