<?xml version="1.0" encoding="UTF-8"?>
<svg width="20px" height="20px" viewBox="0 0 20 20" version="1.1" xmlns="http://www.w3.org/2000/svg" xmlns:xlink="http://www.w3.org/1999/xlink">
    <!-- Generator: Sketch 43.2 (39069) - http://www.bohemiancoding.com/sketch -->
    <title>noun_99668_cc</title>
    <desc>Created with Sketch.</desc>
    <defs></defs>
    <g id="Page-1" stroke="none" stroke-width="1" fill="none" fill-rule="evenodd">
        <g id="dashboard-initi--copy" transform="translate(-1374.000000, -343.000000)" fill-rule="nonzero" fill="#7792FC">
            <g id="noun_99668_cc" transform="translate(1374.000000, 343.000000)">
                <path d="M7.9,0.15 L1.4,0.15 C0.65,0.15 0.05,0.75 0.05,1.5 L0.05,8 C0.05,8.75 0.65,9.35 1.4,9.35 L7.9,9.35 C8.65,9.35 9.25,8.75 9.25,8 L9.25,1.5 C9.25,0.75 8.65,0.15 7.9,0.15 Z M6.55,6.65 L2.75,6.65 L2.75,2.85 L6.55,2.85 L6.55,6.65 Z" id="Shape"></path>
                <path d="M7.9,10.65 L1.4,10.65 C0.65,10.65 0.05,11.25 0.05,12 L0.05,18.5 C0.05,19.25 0.65,19.85 1.4,19.85 L7.9,19.85 C8.65,19.85 9.25,19.25 9.25,18.5 L9.25,12 C9.25,11.25 8.65,10.65 7.9,10.65 Z M6.55,17.15 L2.75,17.15 L2.75,13.35 L6.55,13.35 L6.55,17.15 Z" id="Shape"></path>
                <path d="M18.65,0.15 L12.15,0.15 C11.4,0.15 10.8,0.75 10.8,1.5 L10.8,8 C10.8,8.75 11.4,9.35 12.15,9.35 L18.65,9.35 C19.4,9.35 20,8.75 20,8 L20,1.5 C20,0.75 19.4,0.15 18.65,0.15 Z M17.25,6.65 L13.45,6.65 L13.45,2.85 L17.25,2.85 L17.25,6.65 Z" id="Shape"></path>
                <path d="M18.65,10.65 L12.15,10.65 C11.4,10.65 10.8,11.25 10.8,12 L10.8,18.5 C10.8,19.25 11.4,19.85 12.15,19.85 L18.65,19.85 C19.4,19.85 20,19.25 20,18.5 L20,12 C20,11.25 19.4,10.65 18.65,10.65 Z M17.25,17.15 L13.45,17.15 L13.45,13.35 L17.25,13.35 L17.25,17.15 Z" id="Shape"></path>
            </g>
        </g>
    </g>
</svg>